<?xml version="1.0" standalone="no"?>
<!DOCTYPE svg PUBLIC "-//W3C//DTD SVG 20010904//EN"
 "http://www.w3.org/TR/2001/REC-SVG-20010904/DTD/svg10.dtd">
<svg version="1.0" xmlns="http://www.w3.org/2000/svg"
 width="300.000000pt" height="300.000000pt" viewBox="0 0 300.000000 300.000000"
 preserveAspectRatio="xMidYMid meet">
<metadata>
Created by potrace 1.10, written by Peter Selinger 2001-2011
</metadata>
<g transform="translate(0.000000,300.000000) scale(0.100000,-0.100000)"
fill="#000000" stroke="none">
<path d="M1288 2440 c-4 -14 -8 -45 -8 -70 0 -25 -6 -56 -13 -70 -16 -33 -72
-60 -127 -61 -42 -1 -41 -2 23 -13 92 -16 107 -33 117 -130 9 -95 20 -110 20
-27 0 70 19 124 49 141 12 6 47 15 79 19 43 6 48 9 22 10 -60 2 -109 21 -127
48 -11 16 -19 55 -23 102 -4 55 -7 69 -12 51z m26 -193 c16 -25 -16 -56 -38
-37 -19 15 -20 32 -4 48 15 15 28 11 42 -11z"/>
<path d="M1408 2420 c-10 -18 -25 -30 -38 -30 -11 0 -20 -4 -20 -10 0 -5 11
-10 26 -10 19 0 28 -7 36 -32 11 -32 12 -32 18 -9 5 24 16 33 55 47 17 6 16 8
-12 15 -20 6 -34 18 -40 34 l-8 25 -17 -30z"/>
<path d="M2111 2245 c-2 -43 -19 -97 -33 -107 -7 -4 -27 -8 -45 -8 -17 0 -35
-4 -38 -10 -4 -6 9 -10 33 -10 51 0 68 -20 80 -95 l10 -60 1 48 c2 77 23 107
78 107 17 0 35 5 38 10 4 6 -9 10 -32 10 -58 0 -74 17 -83 86 -4 32 -8 45 -9
29z"/>
<path d="M2196 2044 c-3 -8 -16 -19 -28 -24 -17 -6 -18 -9 -6 -9 9 -1 24 -11
32 -23 13 -19 16 -20 16 -5 0 10 8 21 18 25 16 6 15 9 -5 28 -17 18 -23 19
-27 8z"/>
<path d="M608 1862 c-5 -75 -18 -90 -84 -101 -27 -5 -37 -9 -23 -10 78 -3 108
-36 110 -119 1 -38 2 -42 9 -22 4 14 8 41 9 61 1 46 26 68 88 78 l48 7 -48 6
c-63 7 -87 30 -88 82 -1 74 -16 87 -21 18z"/>
<path d="M1540 1909 c-106 -13 -190 -31 -190 -39 0 -5 35 -27 77 -51 l78 -42
60 11 c33 6 116 23 185 37 69 14 151 29 184 32 33 3 52 9 45 13 -25 14 -266
50 -320 49 -30 -1 -83 -5 -119 -10z m234 -36 c17 -9 14 -12 -25 -18 -24 -4
-77 -15 -116 -25 -83 -20 -130 -19 -168 6 -21 14 -24 19 -12 25 41 23 286 32
321 12z"/>
<path d="M2210 1868 c-125 -5 -361 -39 -480 -67 -50 -13 -4 -13 88 -1 40 5
131 10 202 11 115 1 134 -2 175 -22 24 -12 58 -36 75 -52 41 -40 38 -25 -6 28
-20 24 -33 49 -30 54 7 11 130 39 191 44 99 7 -78 12 -215 5z"/>
<path d="M1080 1823 c-76 -37 -155 -107 -248 -221 -73 -88 -186 -171 -387
-284 -38 -22 -61 -37 -50 -33 46 14 232 124 310 183 47 35 108 91 137 125 108
125 181 192 251 225 37 18 67 35 67 38 0 6 1 6 -80 -33z"/>
<path d="M2328 1832 c-38 -8 -68 -20 -68 -27 0 -6 18 -31 40 -55 37 -40 42
-42 77 -36 21 3 67 9 101 13 37 3 66 11 69 19 6 17 -33 90 -52 98 -26 10 -94
5 -167 -12z m166 -32 c25 -24 4 -40 -60 -46 -32 -3 -61 -6 -64 -7 -16 -3 -50
17 -50 29 0 8 -5 14 -12 14 -6 0 -3 7 8 15 25 21 157 16 178 -5z"/>
<path d="M1178 1820 c-31 -11 -72 -29 -92 -41 l-35 -20 46 -44 45 -44 130 30
c72 16 139 29 149 29 27 0 23 15 -12 44 -75 63 -144 77 -231 46z m157 -36 c14
-9 23 -20 20 -24 -5 -9 -104 -36 -162 -44 -36 -5 -47 -2 -65 16 -17 17 -19 23
-7 26 8 3 16 8 19 12 10 16 97 38 132 34 21 -2 49 -11 63 -20z"/>
<path d="M2530 1823 c0 -12 52 -74 57 -69 7 7 -39 76 -49 76 -5 0 -8 -3 -8 -7z"/>
<path d="M2084 1779 c-9 -16 28 -62 59 -73 34 -12 77 6 77 33 0 11 -4 23 -10
26 -6 4 -7 -1 -3 -12 5 -13 -1 -11 -26 10 -33 28 -84 36 -97 16z"/>
<path d="M1949 1754 c-28 -34 77 -85 116 -56 12 8 16 44 5 37 -4 -3 -13 2 -20
10 -11 13 -10 14 6 9 10 -4 16 -4 12 1 -4 4 -29 10 -56 12 -37 3 -53 -1 -63
-13z"/>
<path d="M963 1685 c-29 -30 -53 -59 -53 -64 0 -6 25 -1 55 9 30 10 75 22 100
25 25 4 45 9 45 12 0 8 -75 73 -84 73 -6 0 -34 -25 -63 -55z"/>
<path d="M510 1675 c0 -9 -10 -19 -22 -24 l-23 -8 22 -7 c12 -4 24 -17 26 -29
l4 -22 8 22 c4 12 17 25 28 29 l22 7 -23 8 c-12 5 -22 15 -22 24 0 8 -4 15
-10 15 -5 0 -10 -7 -10 -15z"/>
<path d="M1695 1641 c88 -21 119 -76 120 -205 l0 -88 -38 -33 -38 -33 48 4
c69 5 111 20 133 46 26 31 25 41 -5 34 -23 -6 -25 -3 -32 36 l-7 43 -8 -44
c-9 -51 -29 -86 -60 -102 l-23 -12 21 24 c36 40 44 65 44 135 0 119 -61 205
-143 203 -39 -1 -40 -2 -12 -8z"/>
<path d="M2635 1590 c-16 -26 -283 -86 -468 -105 -54 -6 -71 -4 -85 8 -15 13
-28 14 -97 4 -44 -6 -81 -11 -82 -12 -1 0 3 -20 9 -44 l11 -43 76 6 c146 13
476 76 588 112 58 19 89 45 80 69 -7 17 -23 20 -32 5z m-569 -129 c-4 -5 0
-11 6 -14 7 -2 -11 -6 -40 -8 -60 -4 -87 5 -62 21 19 12 103 13 96 1z"/>
<path d="M2490 1465 c-19 -7 -74 -19 -122 -26 -49 -7 -88 -16 -88 -20 0 -13
66 -34 106 -32 49 2 89 20 123 57 30 32 26 37 -19 21z"/>
<path d="M1300 1419 c-263 -36 -280 -36 -321 -2 l-32 27 16 -30 c25 -48 42
-57 90 -49 23 3 138 22 256 40 117 19 216 37 219 40 7 7 5 7 -228 -26z"/>
<path d="M1449 1405 c-3 -2 -88 -18 -190 -34 -180 -29 -265 -48 -257 -57 5 -5
427 71 473 85 29 9 29 9 4 10 -14 1 -28 -1 -30 -4z"/>
<path d="M1300 1279 c-80 -9 -226 -23 -325 -30 -99 -6 -183 -15 -187 -18 -4
-3 82 -3 190 2 144 5 241 15 362 36 187 33 172 37 -40 10z"/>
<path d="M947 938 c-9 -57 -17 -108 -17 -113 0 -7 14 -9 34 -7 31 4 34 8 40
43 6 37 8 39 41 39 32 0 35 3 35 28 0 26 -3 28 -30 24 -25 -4 -30 -1 -30 17 0
18 6 21 49 21 44 0 49 2 53 25 l5 25 -81 0 -82 0 -17 -102z m58 -18 c-3 -6
-10 -10 -16 -10 -10 0 -12 33 -2 44 9 9 26 -22 18 -34z"/>
<path d="M1176 968 c-22 -40 -50 -92 -63 -115 l-24 -42 38 6 c21 3 43 12 49
19 15 19 84 19 84 0 0 -9 14 -15 41 -18 36 -3 40 -2 35 17 -3 11 -12 62 -22
113 l-17 92 -41 0 c-42 0 -42 0 -80 -72z m104 6 c0 -11 -5 -11 -25 -2 -19 9
-22 14 -14 25 13 15 39 0 39 -23z m-43 -72 c-27 -5 -29 1 -10 39 l18 34 5 -35
c4 -28 2 -36 -13 -38z m60 -28 c0 -6 -7 -11 -16 -9 -15 2 -17 7 -12 35 1 14
28 -10 28 -26z"/>
<path d="M1385 1023 c35 -86 46 -132 41 -169 l-5 -41 37 6 c32 5 37 10 40 35
2 16 28 64 59 107 l55 79 -41 0 c-37 0 -42 -3 -61 -41 -24 -46 -29 -45 -39 3
-6 31 -10 33 -50 36 -39 3 -43 1 -36 -15z m109 -76 c4 5 2 -4 -5 -19 -13 -30
-26 -28 -39 6 -11 29 -1 40 19 22 10 -9 21 -13 25 -9z"/>
<path d="M1630 1037 c0 -2 -9 -52 -20 -112 -11 -60 -20 -109 -20 -109 0 -7
152 13 168 22 61 34 82 133 37 177 -21 22 -33 25 -95 25 -38 0 -70 -1 -70 -3z
m118 -90 c4 -35 -22 -67 -55 -67 -20 0 -23 4 -18 25 3 14 7 37 10 51 5 21 11
25 33 22 21 -2 28 -9 30 -31z"/>
<path d="M1901 981 c-17 -32 -44 -82 -60 -110 -17 -29 -31 -54 -31 -56 0 -10
76 10 83 22 11 18 87 18 87 -1 0 -9 14 -15 41 -18 36 -3 40 -2 35 17 -4 11
-14 62 -23 113 l-17 92 -43 0 c-42 0 -43 -1 -72 -59z m87 7 c20 -20 13 -27
-17 -15 -17 6 -28 15 -25 19 7 12 28 10 42 -4z m-18 -53 c0 -29 -4 -35 -21
-35 -16 0 -19 4 -14 18 4 9 10 25 12 35 9 30 23 19 23 -18z"/>
</g>
</svg>
